<svg id="visual" viewBox="0 0 1440 842" width="1440" height="842" xmlns="http://www.w3.org/2000/svg" xmlns:xlink="http://www.w3.org/1999/xlink" version="1.1"><rect width="1440" height="842" fill="#001829"></rect><g><g transform="translate(474 290)"><path d="M0 -19.6L17 -9.8L17 9.8L0 19.6L-17 9.8L-17 -9.8Z" fill="none" stroke="#297EA6" stroke-width="2"></path></g><g transform="translate(151 446)"><path d="M0 -8L6.9 -4L6.9 4L0 8L-6.9 4L-6.9 -4Z" fill="none" stroke="#297EA6" stroke-width="2"></path></g><g transform="translate(346 679)"><path d="M0 -10L8.7 -5L8.7 5L0 10L-8.7 5L-8.7 -5Z" fill="none" stroke="#297EA6" stroke-width="2"></path></g><g transform="translate(590 347)"><path d="M0 -8L6.9 -4L6.9 4L0 8L-6.9 4L-6.9 -4Z" fill="none" stroke="#297EA6" stroke-width="2"></path></g><g transform="translate(250 77)"><path d="M0 -8L6.9 -4L6.9 4L0 8L-6.9 4L-6.9 -4Z" fill="none" stroke="#297EA6" stroke-width="2"></path></g><g transform="translate(755 138)"><path d="M0 -18L15.6 -9L15.6 9L0 18L-15.6 9L-15.6 -9Z" fill="none" stroke="#297EA6" stroke-width="2"></path></g><g transform="translate(113 795)"><path d="M0 -15L13 -7.5L13 7.5L0 15L-13 7.5L-13 -7.5Z" fill="none" stroke="#297EA6" stroke-width="2"></path></g><g transform="translate(1309 209)"><path d="M0 -7L6.1 -3.5L6.1 3.5L0 7L-6.1 3.5L-6.1 -3.5Z" fill="none" stroke="#297EA6" stroke-width="2"></path></g><g transform="translate(972 531)"><path d="M0 -4L3.5 -2L3.5 2L0 4L-3.5 2L-3.5 -2Z" fill="none" stroke="#297EA6" stroke-width="2"></path></g><g transform="translate(550 301)"><path d="M0 -13L11.3 -6.5L11.3 6.5L0 13L-11.3 6.5L-11.3 -6.5Z" fill="none" stroke="#297EA6" stroke-width="2"></path></g><g transform="translate(290 672)"><path d="M0 -2L1.7 -1L1.7 1L0 2L-1.7 1L-1.7 -1Z" fill="none" stroke="#297EA6" stroke-width="2"></path></g><g transform="translate(1012 725)"><path d="M0 -18L15.6 -9L15.6 9L0 18L-15.6 9L-15.6 -9Z" fill="none" stroke="#297EA6" stroke-width="2"></path></g><g transform="translate(717 726)"><path d="M0 -2L1.7 -1L1.7 1L0 2L-1.7 1L-1.7 -1Z" fill="none" stroke="#297EA6" stroke-width="2"></path></g><g transform="translate(135 71)"><path d="M0 -12L10.4 -6L10.4 6L0 12L-10.4 6L-10.4 -6Z" fill="none" stroke="#297EA6" stroke-width="2"></path></g><g transform="translate(817 705)"><path d="M0 -8L6.9 -4L6.9 4L0 8L-6.9 4L-6.9 -4Z" fill="none" stroke="#297EA6" stroke-width="2"></path></g><g transform="translate(1230 781)"><path d="M0 -10L8.7 -5L8.7 5L0 10L-8.7 5L-8.7 -5Z" fill="none" stroke="#297EA6" stroke-width="2"></path></g><g transform="translate(1243 73)"><path d="M0 -7L6.1 -3.5L6.1 3.5L0 7L-6.1 3.5L-6.1 -3.5Z" fill="none" stroke="#297EA6" stroke-width="2"></path></g><g transform="translate(281 757)"><path d="M0 -13L11.3 -6.5L11.3 6.5L0 13L-11.3 6.5L-11.3 -6.5Z" fill="none" stroke="#297EA6" stroke-width="2"></path></g></g></svg>